/* XPM */
static char * SO_test_xpm[] = {
"64 64 125 2",
"  	c #FF00F6",
". 	c #E77CDF",
"+ 	c #BEB9B8",
"@ 	c #96D992",
"# 	c #6AEE69",
"$ 	c #4FF650",
"% 	c #26FD2F",
"& 	c #35FB3A",
"* 	c #53F554",
"= 	c #75EA73",
"- 	c #9BD697",
"; 	c #BABDB4",
"> 	c #DD8FD6",
", 	c #FA3BF1",
"' 	c #D898D1",
") 	c #79E877",
"! 	c #00FF19",
"~ 	c #8DDE8A",
"{ 	c #CDA7C6",
"] 	c #F749EF",
"^ 	c #FB35F2",
"/ 	c #9FD49A",
"( 	c #A4D0A0",
"_ 	c #FB32F3",
": 	c #8EDE8B",
"< 	c #B4C2AF",
"[ 	c #60F160",
"} 	c #B7C0B1",
"| 	c #DE8ED6",
"1 	c #F25FE9",
"2 	c #FD22F4",
"3 	c #EF68E7",
"4 	c #DB94D3",
"5 	c #C2B5BC",
"6 	c #95DA91",
"7 	c #42F945",
"8 	c #EF66E7",
"9 	c #0DFF1E",
"0 	c #BBBCB5",
"a 	c #FC2AF4",
"b 	c #FE1CF5",
"c 	c #E089D9",
"d 	c #A8CDA3",
"e 	c #B2C5AC",
"f 	c #BFB8B9",
"g 	c #87E284",
"h 	c #FD26F4",
"i 	c #63F063",
"j 	c #99D795",
"k 	c #40F943",
"l 	c #A7CEA2",
"m 	c #58F459",
"n 	c #81E57F",
"o 	c #2AFC31",
"p 	c #F160E9",
"q 	c #7AE878",
"r 	c #EE69E6",
"s 	c #1CFE27",
"t 	c #38FB3C",
"u 	c #AACBA5",
"v 	c #DF8BD8",
"w 	c #B2C4AD",
"x 	c #32FB37",
"y 	c #82E47F",
"z 	c #AFC7AA",
"A 	c #D1A2CA",
"B 	c #ED6DE5",
"C 	c #9CD598",
"D 	c #51F652",
"E 	c #D0A4C9",
"F 	c #C7AFC0",
"G 	c #49F74B",
"H 	c #3DFA41",
"I 	c #B3C4AE",
"J 	c #F847EF",
"K 	c #F845F0",
"L 	c #C0B6BA",
"M 	c #71EC6F",
"N 	c #4DF64F",
"O 	c #DE8DD7",
"P 	c #EC70E4",
"Q 	c #CAACC3",
"R 	c #9FD39B",
"S 	c #68EF67",
"T 	c #22FD2B",
"U 	c #D59CCE",
"V 	c #7EE67B",
"W 	c #3BFA3F",
"X 	c #ED6EE4",
"Y 	c #EB72E3",
"Z 	c #97D893",
"` 	c #9AD796",
" .	c #F35AEB",
"..	c #90DD8C",
"+.	c #D69BCF",
"@.	c #B6C0B1",
"#.	c #EE6CE5",
"$.	c #A9CCA4",
"%.	c #F065E8",
"&.	c #ABCAA6",
"*.	c #D2A1CB",
"=.	c #9DD599",
"-.	c #D1A3CA",
";.	c #E483DC",
">.	c #F64DEE",
",.	c #72EB70",
"'.	c #D2A0CB",
").	c #7FE67C",
"!.	c #D59DCE",
"~.	c #F555EC",
"{.	c #F456EC",
"].	c #E188D9",
"^.	c #76EA74",
"/.	c #2EFC34",
"(.	c #D49FCC",
"_.	c #F35CEA",
":.	c #91DC8D",
"<.	c #B0C6AB",
"[.	c #F74BEE",
"}.	c #E581DD",
"|.	c #C4B2BE",
"1.	c #86E283",
"2.	c #47F849",
"3.	c #93DB8F",
"4.	c #DA94D3",
"                                                                                                                                ",
"                                                                                                                                ",
"                                                                                                                                ",
"                                                                                                                                ",
"                                                                                                                                ",
"                                                                                                                                ",
"                                                                                                                                ",
"                                                                                                                                ",
"                                                                                                                                ",
"                                                                                                                                ",
"                                                                                                                                ",
"                                                                                                                                ",
"                                                                                                                                ",
"                                                                                                                                ",
"                                                                                                                                ",
"                                                      . + @ # $ % & * = - ; > ,                                                 ",
"                                                  ' ) ! ! ! ! ! ! ! ! ! ! ! ! % ~ { ]                                           ",
"                                              ^ / ! ! ! ! ! ! ! ! ! ! ! ! ! ! ! ! ! (                                           ",
"                                            _ : ! ! ! ! ! ! ! ! ! ! ! ! ! ! ! ! ! ! (                                           ",
"                                            < ! ! ! ! ! [ } | 1 , 2 ] 3 4 5 6 7 ! ! (                                           ",
"                                          8 % ! ! ! 9 0 a                     b c d e                                           ",
"                                          f ! ! ! ! +                                                                           ",
"                                          g ! ! ! $ h                                                                           ",
"                                          i ! ! ! j                                                                             ",
"                                          k ! ! ! l                                                                             ",
"                                          m ! ! ! ~                                                                             ",
"                                          n ! ! ! o p                                                                           ",
"                                          } ! ! ! ! q 1                                                                         ",
"                                          r s ! ! ! ! t u v h                                                                   ",
"                                            w ! ! ! ! ! ! ! x y z A B                                                           ",
"                                            b C ! ! ! ! ! ! ! ! ! ! ! D - E ,                                                   ",
"                                                F G ! ! ! ! ! ! ! ! ! ! ! ! H I J                                               ",
"                                                  K L M ! ! ! ! ! ! ! ! ! ! ! ! N O                                             ",
"                                                        P Q R S 9 ! ! ! ! ! ! ! ! T U                                           ",
"                                                                K v 0 V ! ! ! ! ! ! W X                                         ",
"                                                                        Y Z ! ! ! ! ! `                                         ",
"                                                                            L ! ! ! ! 9  .                                      ",
"                                                                              ..! ! ! ! A                                       ",
"                                                                              +.! ! ! ! @.                                      ",
"                                                                              #.! ! ! ! $.                                      ",
"                                                                              %.! ! ! ! &.                                      ",
"                                                                              v ! ! ! ! 0                                       ",
"                                                                              &.! ! ! ! *.                                      ",
"                                          =.-.2                             ;.T ! ! ! s >.                                      ",
"                                          ,.! i + %.                      '.H ! ! ! ! @                                         ",
"                                          ,.! ! ! ! ).w !.Y ~.h _ {.].L ^.! ! ! ! ! /.r                                         ",
"                                          ,.! ! ! ! ! ! ! ! ! ! ! ! ! ! ! ! ! ! ! s (.                                          ",
"                                          ,.! ! ! ! ! ! ! ! ! ! ! ! ! ! ! ! ! ! D '                                             ",
"                                          _.Q :.& ! ! ! ! ! ! ! ! ! ! ! ! ! N <.[.                                              ",
"                                                h }.|.l 1.[ 2.T x * # 3.} 4.h                                                   ",
"                                                                                                                                ",
"                                                                                                                                ",
"                                                                                                                                ",
"                                                                                                                                ",
"                                                                                                                                ",
"                                                                                                                                ",
"                                                                                                                                ",
"                                                                                                                                ",
"                                                                                                                                ",
"                                                                                                                                ",
"                                                                                                                                ",
"                                                                                                                                ",
"                                                                                                                                ",
"                                                                                                                                "};
